<?xml version="1.0" encoding="utf-8"?>
<!-- Generator: Adobe Illustrator 24.1.0, SVG Export Plug-In . SVG Version: 6.00 Build 0)  -->
<svg version="1.1" id="Layer_1" xmlns="http://www.w3.org/2000/svg" xmlns:xlink="http://www.w3.org/1999/xlink" x="0px" y="0px"
	 viewBox="0 0 42.5 42.5" style="enable-background:new 0 0 42.5 42.5;" xml:space="preserve">
<style type="text/css">
	.st0{opacity:0.25;enable-background:new    ;}
	.st1{fill:#DD6EAB;}
	.st2{opacity:0.15;enable-background:new    ;}
	.st3{opacity:0.35;fill:#FFFFFF;enable-background:new    ;}
</style>
<path class="st0" d="M32.5,28.1c-3.6-0.8-8.7-0.1-11.4,1.4c-2.4,1.4-2,3.1,0.8,4l-0.5,0.3l-6.5,3.8l0,0c-0.2,0.1,0.1,0.3,0.7,0.5
	s1.3,0.1,1.5,0l6.5-3.8l0.5-0.3c3.5,0.4,7.8-0.2,10.2-1.6C36.9,30.7,36.1,28.8,32.5,28.1z"/>
<path class="st1" d="M16.3,4.3c-5.3,0-9.6,4.3-9.6,9.6c0,4.8,3.5,8.7,8,9.5v14l0,0c0,0.4,0.7,0.8,1.6,0.8c0.9,0,1.6-0.4,1.6-0.8v-14
	c4.5-0.8,8-4.7,8-9.5C25.9,8.6,21.6,4.3,16.3,4.3z"/>
<path class="st2" d="M14.7,23.4c0,0,1.6,0.4,3.2,0v0.9c0,0-1.4,0.7-3.2,0V23.4z"/>
<circle class="st3" cx="12.6" cy="10.9" r="2.8"/>
</svg>
